<svg width="48" height="21" viewBox="0 0 48 21" fill="none" xmlns="http://www.w3.org/2000/svg">
<path d="M14.526 12.5252L12.2739 12.3582L12.7439 6.02272L10.7146 5.87217L10.2446 12.2076L3.01823 11.6715L1.55715 11.9115L1.60122 11.3175C7.68582 9.13123 10.6634 5.22138 11.6685 0.39379L9.63918 0.243237C8.76329 5.00576 5.21295 8.25102 1.12845 9.64011L0.860387 13.2533L10.1161 13.94L9.82967 17.8006L11.859 17.9512L12.1454 14.0905L14.3975 14.2576L14.526 12.5252Z" fill="#242424"/>
<path d="M25.0385 1.13686C20.1385 0.773325 17.3048 4.42013 16.9248 9.54294C16.5429 14.6905 18.8073 18.7155 23.7074 19.079C28.558 19.4389 31.3916 15.7921 31.7735 10.6445C32.1536 5.52174 29.8891 1.49671 25.0385 1.13686ZM24.91 2.8692C26.4196 2.9812 27.5442 3.5872 28.3672 4.56897L19.4073 13.9823C18.9739 12.7806 18.8082 11.325 18.9294 9.69165C19.2415 5.48452 21.2721 2.59931 24.91 2.8692ZM23.8359 17.3467C22.3016 17.2329 21.1522 16.625 20.3311 15.6185L29.291 6.20519C29.7244 7.4069 29.8901 8.86247 29.7689 10.4958C29.455 14.7277 27.4491 17.6148 23.8359 17.3467Z" fill="#242424"/>
<path d="M47.721 14.9879L45.4689 14.8209L45.9389 8.48542L43.9096 8.33487L43.4396 14.6703L36.2132 14.1342L34.7521 14.3742L34.7962 13.7802C40.8808 11.5939 43.8584 7.68408 44.8635 2.85649L42.8342 2.70593C41.9583 7.46846 38.4079 10.7137 34.3234 12.1028L34.0554 15.716L43.3111 16.4027L43.0247 20.2633L45.054 20.4139L45.3404 16.5532L47.5925 16.7203L47.721 14.9879Z" fill="#242424"/>
</svg>
