<svg width="43" height="35" viewBox="0 0 43 35" fill="none" xmlns="http://www.w3.org/2000/svg">
<path d="M11.4667 0.00012207C5.06912 0.423511 0 5.78644 0 12.349H6.25775C6.25775 9.27939 8.53012 6.70378 11.5017 6.31567V0.00012207H11.4667Z" fill="#2E2E2E"/>
<path d="M13.1094 0.00012207V6.31567C16.046 6.73906 18.2834 9.27939 18.2834 12.349H24.5411C24.5411 5.78644 19.472 0.423511 13.1094 0.00012207Z" fill="#2E2E2E"/>
<path d="M29.8554 0.00012207C23.4578 0.423511 18.3887 5.78644 18.3887 12.349H24.6464C24.6464 9.27939 26.9188 6.70378 29.8903 6.31567V0.00012207H29.8554Z" fill="#2E2E2E"/>
<path d="M31.498 0.00012207V6.31567C34.4346 6.73906 36.672 9.27939 36.672 12.349H42.9298C42.9298 5.78644 37.8956 0.423511 31.498 0.00012207Z" fill="#2E2E2E"/>
<path d="M20.696 28.2966C17.6196 26.7794 7.02685 20.9931 6.53742 14.0425H0C0.489433 24.4155 16.7806 32.9891 20.6611 34.8944V28.2966H20.696Z" fill="#2E2E2E"/>
<path d="M36.4975 14.0425C36.043 20.9931 25.4153 26.7794 22.3389 28.2966V34.8944C26.2194 32.9891 42.5455 24.4155 42.9999 14.0425H36.4975Z" fill="#2E2E2E"/>
</svg>
